HIERARCHY
ROOT Hips
{
	OFFSET 0.000000 97.167313 0.000000
	CHANNELS 6 Xposition Yposition Zposition Xrotation Yrotation Zrotation
	JOINT Spine
	{
		OFFSET 0.000000 13.784798 0.064400
		CHANNELS 3 Xrotation Yrotation Zrotation
		JOINT Spine1
		{
			OFFSET 0.000000 12.037903 0.404700
			CHANNELS 3 Xrotation Yrotation Zrotation
			JOINT Spine2
			{
				OFFSET 0.000000 17.795601 0.420200
				CHANNELS 3 Xrotation Yrotation Zrotation
				JOINT Neck
				{
					OFFSET 0.000000 39.131302 11.954600
					CHANNELS 3 Xrotation Yrotation Zrotation
					JOINT Head
					{
						OFFSET 0.000000 14.456192 15.627699
						CHANNELS 3 Xrotation Yrotation Zrotation
						JOINT HeadTop_End
						{
							OFFSET 0.000000 15.703506 7.603401
							CHANNELS 3 Xrotation Yrotation Zrotation
							End Site
							{
								OFFSET 0.000000 17.447403 0.000000
							}
						}
					}
				}
				JOINT LeftShoulder
				{
					OFFSET 17.399500 24.608795 1.168800
					CHANNELS 3 Xrotation Yrotation Zrotation
					JOINT LeftArm
					{
						OFFSET 18.980635 5.765305 1.818600
						CHANNELS 3 Xrotation Yrotation Zrotation
						JOINT LeftForeArm
						{
							OFFSET 49.290169 0.000000 0.000000
							CHANNELS 3 Xrotation Yrotation Zrotation
							JOINT LeftHand
							{
								OFFSET 31.562012 0.000000 0.000000
								CHANNELS 3 Xrotation Yrotation Zrotation
								JOINT LeftHandThumb1
								{
									OFFSET 6.133995 -4.388519 7.076070
									CHANNELS 3 Xrotation Yrotation Zrotation
									JOINT LeftHandThumb2
									{
										OFFSET 6.037666 -3.485840 3.485847
										CHANNELS 3 Xrotation Yrotation Zrotation
										JOINT LeftHandThumb3
										{
											OFFSET 6.496506 -3.750763 3.750761
											CHANNELS 3 Xrotation Yrotation Zrotation
											JOINT LeftHandThumb4
											{
												OFFSET 5.616882 -3.242905 3.242910
												CHANNELS 3 Xrotation Yrotation Zrotation
												End Site
												{
													OFFSET -1.254608 7.132141 0.375429
												}
											}
										}
									}
								}
								JOINT LeftHandPinky1
								{
									OFFSET 18.920792 -0.453171 -11.426712
									CHANNELS 3 Xrotation Yrotation Zrotation
									JOINT LeftHandPinky2
									{
										OFFSET 4.919586 0.000000 0.000000
										CHANNELS 3 Xrotation Yrotation Zrotation
										JOINT LeftHandPinky3
										{
											OFFSET 5.233047 0.000000 0.000000
											CHANNELS 3 Xrotation Yrotation Zrotation
											JOINT LeftHandPinky4
											{
												OFFSET 5.571716 0.000000 0.000000
												CHANNELS 3 Xrotation Yrotation Zrotation
												End Site
												{
													OFFSET -3.459808 4.342407 -0.466164
												}
											}
										}
									}
								}
								JOINT LeftHandRing1
								{
									OFFSET 22.726120 -0.094986 -6.500475
									CHANNELS 3 Xrotation Yrotation Zrotation
									JOINT LeftHandRing2
									{
										OFFSET 6.408615 0.000000 0.000000
										CHANNELS 3 Xrotation Yrotation Zrotation
										JOINT LeftHandRing3
										{
											OFFSET 6.150223 0.000000 0.000000
											CHANNELS 3 Xrotation Yrotation Zrotation
											JOINT LeftHandRing4
											{
												OFFSET 6.145386 0.000000 0.000000
												CHANNELS 3 Xrotation Yrotation Zrotation
												End Site
												{
													OFFSET -3.671402 4.923981 -0.202372
												}
											}
										}
									}
								}
								JOINT LeftHandMiddle1
								{
									OFFSET 23.373947 0.000000 0.000001
									CHANNELS 3 Xrotation Yrotation Zrotation
									JOINT LeftHandMiddle2
									{
										OFFSET 6.996567 0.000000 0.000000
										CHANNELS 3 Xrotation Yrotation Zrotation
										JOINT LeftHandMiddle3
										{
											OFFSET 7.015945 0.000000 0.000000
											CHANNELS 3 Xrotation Yrotation Zrotation
											JOINT LeftHandMiddle4
											{
												OFFSET 7.721573 0.000000 0.000000
												CHANNELS 3 Xrotation Yrotation Zrotation
												End Site
												{
													OFFSET -4.651108 6.158463 0.251582
												}
											}
										}
									}
								}
								JOINT LeftHandIndex1
								{
									OFFSET 21.310577 -0.490082 6.209344
									CHANNELS 3 Xrotation Yrotation Zrotation
									JOINT LeftHandIndex2
									{
										OFFSET 7.536453 0.000000 0.000000
										CHANNELS 3 Xrotation Yrotation Zrotation
										JOINT LeftHandIndex3
										{
											OFFSET 7.512344 0.000000 0.000000
											CHANNELS 3 Xrotation Yrotation Zrotation
											JOINT LeftHandIndex4
											{
												OFFSET 10.212402 0.000000 0.000001
												CHANNELS 3 Xrotation Yrotation Zrotation
												End Site
												{
													OFFSET -5.180801 8.690506 1.388433
												}
											}
										}
									}
								}
							}
						}
					}
				}
				JOINT RightShoulder
				{
					OFFSET -17.399500 24.608795 1.168800
					CHANNELS 3 Xrotation Yrotation Zrotation
					JOINT RightArm
					{
						OFFSET -18.980635 5.765305 1.818600
						CHANNELS 3 Xrotation Yrotation Zrotation
						JOINT RightForeArm
						{
							OFFSET -49.290169 0.000000 0.000000
							CHANNELS 3 Xrotation Yrotation Zrotation
							JOINT RightHand
							{
								OFFSET -31.562012 0.000000 0.000000
								CHANNELS 3 Xrotation Yrotation Zrotation
								JOINT RightHandThumb1
								{
									OFFSET -6.133995 -4.388519 7.076070
									CHANNELS 3 Xrotation Yrotation Zrotation
									JOINT RightHandThumb2
									{
										OFFSET -6.037666 -3.485840 3.485847
										CHANNELS 3 Xrotation Yrotation Zrotation
										JOINT RightHandThumb3
										{
											OFFSET -6.496506 -3.750763 3.750761
											CHANNELS 3 Xrotation Yrotation Zrotation
											JOINT RightHandThumb4
											{
												OFFSET -5.616882 -3.242905 3.242910
												CHANNELS 3 Xrotation Yrotation Zrotation
												End Site
												{
													OFFSET 1.254608 7.132141 0.375429
												}
											}
										}
									}
								}
								JOINT RightHandIndex1
								{
									OFFSET -21.310577 -0.490082 6.209344
									CHANNELS 3 Xrotation Yrotation Zrotation
									JOINT RightHandIndex2
									{
										OFFSET -7.536453 0.000000 0.000000
										CHANNELS 3 Xrotation Yrotation Zrotation
										JOINT RightHandIndex3
										{
											OFFSET -7.512344 0.000000 0.000000
											CHANNELS 3 Xrotation Yrotation Zrotation
											JOINT RightHandIndex4
											{
												OFFSET -10.212402 0.000000 0.000001
												CHANNELS 3 Xrotation Yrotation Zrotation
												End Site
												{
													OFFSET 5.180801 8.690506 1.388433
												}
											}
										}
									}
								}
								JOINT RightHandMiddle1
								{
									OFFSET -23.373947 0.000000 0.000001
									CHANNELS 3 Xrotation Yrotation Zrotation
									JOINT RightHandMiddle2
									{
										OFFSET -6.996567 0.000000 0.000000
										CHANNELS 3 Xrotation Yrotation Zrotation
										JOINT RightHandMiddle3
										{
											OFFSET -7.015945 0.000000 0.000000
											CHANNELS 3 Xrotation Yrotation Zrotation
											JOINT RightHandMiddle4
											{
												OFFSET -7.721573 0.000000 0.000000
												CHANNELS 3 Xrotation Yrotation Zrotation
												End Site
												{
													OFFSET 4.651108 6.158463 0.251582
												}
											}
										}
									}
								}
								JOINT RightHandRing1
								{
									OFFSET -22.726120 -0.094986 -6.500475
									CHANNELS 3 Xrotation Yrotation Zrotation
									JOINT RightHandRing2
									{
										OFFSET -6.408615 0.000000 0.000000
										CHANNELS 3 Xrotation Yrotation Zrotation
										JOINT RightHandRing3
										{
											OFFSET -6.150223 0.000000 0.000000
											CHANNELS 3 Xrotation Yrotation Zrotation
											JOINT RightHandRing4
											{
												OFFSET -6.145386 0.000000 0.000000
												CHANNELS 3 Xrotation Yrotation Zrotation
												End Site
												{
													OFFSET 3.671402 4.923981 -0.202372
												}
											}
										}
									}
								}
								JOINT RightHandPinky1
								{
									OFFSET -18.920792 -0.453171 -11.426712
									CHANNELS 3 Xrotation Yrotation Zrotation
									JOINT RightHandPinky2
									{
										OFFSET -4.919586 0.000000 0.000000
										CHANNELS 3 Xrotation Yrotation Zrotation
										JOINT RightHandPinky3
										{
											OFFSET -5.233047 0.000000 0.000000
											CHANNELS 3 Xrotation Yrotation Zrotation
											JOINT RightHandPinky4
											{
												OFFSET -5.571716 0.000000 0.000000
												CHANNELS 3 Xrotation Yrotation Zrotation
												End Site
												{
													OFFSET 3.459808 4.342407 -0.466164
												}
											}
										}
									}
								}
							}
						}
					}
				}
			}
		}
	}
	JOINT LeftUpLeg
	{
		OFFSET 19.899099 -7.885101 -3.429500
		CHANNELS 3 Xrotation Yrotation Zrotation
		JOINT LeftLeg
		{
			OFFSET 1.745560 -36.997807 10.304700
			CHANNELS 3 Xrotation Yrotation Zrotation
			JOINT LeftFoot
			{
				OFFSET -1.745558 -29.803308 -13.615400
				CHANNELS 3 Xrotation Yrotation Zrotation
				JOINT LeftToeBase
				{
					OFFSET 1.181900 -18.539904 15.226099
					CHANNELS 3 Xrotation Yrotation Zrotation
					JOINT LeftToe_End
					{
						OFFSET -0.863701 1.402801 16.534700
						CHANNELS 3 Xrotation Yrotation Zrotation
						End Site
						{
							OFFSET 0.000000 16.616566 0.000000
						}
					}
				}
			}
		}
	}
	JOINT RightUpLeg
	{
		OFFSET -19.899099 -7.885101 -3.429500
		CHANNELS 3 Xrotation Yrotation Zrotation
		JOINT RightLeg
		{
			OFFSET -1.745560 -36.997807 10.304700
			CHANNELS 3 Xrotation Yrotation Zrotation
			JOINT RightFoot
			{
				OFFSET 1.745558 -29.803308 -13.615400
				CHANNELS 3 Xrotation Yrotation Zrotation
				JOINT RightToeBase
				{
					OFFSET -1.181900 -18.539904 15.226099
					CHANNELS 3 Xrotation Yrotation Zrotation
					JOINT RightToe_End
					{
						OFFSET 0.863701 1.402801 16.534700
						CHANNELS 3 Xrotation Yrotation Zrotation
						End Site
						{
							OFFSET 0.000000 16.616566 0.000000
						}
					}
				}
			}
		}
	}
}
MOTION
Frames: 5
Frame Time: 0.033333
1.870472 90.299255 1.038301 -7.349879 3.239715 5.047107 4.998013 -11.564420 -1.407654 1.296473 0.412279 -0.743437 1.290655 0.436309 -0.504282 2.335750 2.677082 1.326126 9.419509 35.036644 -6.546988 0.000001 -0.000001 -0.000000 -0.622562 -16.371024 -20.154065 10.493419 0.518726 -34.374252 0.000002 -94.398617 0.000013 -118.481297 -20.072691 15.293623 -12.800139 -17.470120 4.121642 1.000147 0.731320 -1.438313 -7.335815 -0.421725 13.147351 0.000001 0.000001 -0.000004 6.410319 8.363718 -80.414563 1.722723 4.149877 -45.074433 0.636274 2.657163 -26.928198 -0.000001 0.000000 -0.000002 4.717024 8.075515 -77.582268 2.056305 4.456866 -49.517656 1.539979 3.959688 -42.490617 -0.000000 0.000000 -0.000000 2.434395 7.296053 -69.364095 3.297862 5.266361 -64.088655 0.787095 2.934904 -30.019552 -0.000002 -0.000002 0.000002 -3.532557 4.254338 -63.954579 3.402097 5.315515 -65.218949 1.034624 3.326111 -34.549819 0.000000 0.000002 -0.000003 0.754309 18.436750 11.542203 10.687464 23.553366 38.393228 -0.000349 97.831566 0.000405 -36.200891 -16.864842 23.181780 20.470548 7.475593 18.843587 4.151744 -12.160915 -33.847976 -6.346175 -41.944045 -36.535481 -0.000002 0.000002 -0.000003 -0.887110 1.427986 12.684519 1.917429 -3.767456 53.934346 3.057975 -4.374561 69.896782 -0.000000 -0.000001 -0.000001 0.770895 -5.199586 54.618834 5.563871 -4.568230 101.238573 4.771470 -4.655773 91.407882 -0.000000 0.000001 -0.000006 6.934464 -8.544287 63.908769 2.909303 -4.317390 67.934714 1.862862 -3.727183 53.099444 0.000001 0.000001 -0.000002 8.373380 -8.171751 73.989937 2.173673 -3.940950 57.745397 1.042009 -2.937907 39.049865 -0.000001 -0.000000 0.000002 -15.321750 12.218035 3.967938 16.368656 7.166574 2.529762 6.749184 -7.520776 -5.036538 -0.183135 0.003018 -0.085471 -0.000000 0.000000 -0.000000 7.856051 -33.215073 -10.190320 22.283841 6.814158 -1.573535 -24.833740 -11.111307 5.184285 -3.117461 -0.000007 0.000002 0.000001 -0.000000 0.000000 
1.995645 90.120865 1.022820 -7.311403 4.326146 5.234722 5.024530 -11.575399 -1.556515 1.295501 0.520389 -0.769102 1.290152 0.543768 -0.535355 2.360652 2.758092 1.337032 9.601210 36.171818 -6.601389 0.000001 0.000001 -0.000000 -0.622562 -16.371024 -20.154065 10.631655 0.621419 -34.425489 -0.000215 -94.546655 -0.000254 -118.492294 -20.246605 15.302713 -12.800138 -17.470116 4.121641 1.000145 0.731319 -1.438310 -7.335818 -0.421729 13.147352 -0.000000 -0.000000 -0.000001 6.410325 8.363714 -80.414563 1.722726 4.149882 -45.074426 0.636274 2.657160 -26.928197 0.000001 0.000002 0.000001 4.717026 8.075514 -77.582275 2.056306 4.456867 -49.517656 1.539980 3.959687 -42.490617 0.000001 0.000001 0.000005 2.434396 7.296050 -69.364095 3.297861 5.266358 -64.088662 0.787100 2.934902 -30.019552 0.000000 0.000000 0.000004 -3.532552 4.254341 -63.954586 3.402099 5.315517 -65.218949 1.034623 3.326117 -34.549819 -0.000002 0.000001 0.000001 0.754309 18.436750 11.542206 10.687449 23.553385 38.393245 -0.000050 97.831511 0.000011 -36.169987 -16.925513 23.333779 20.470550 7.475590 18.843589 4.151748 -12.160917 -33.847972 -6.346165 -41.944045 -36.535481 0.000004 -0.000001 -0.000001 -0.887112 1.427982 12.684517 1.917426 -3.767460 53.934346 3.057976 -4.374559 69.896775 0.000000 -0.000002 0.000003 0.770893 -5.199591 54.618834 5.563870 -4.568231 101.238573 4.771470 -4.655771 91.407875 0.000001 0.000001 -0.000004 6.934464 -8.544289 63.908775 2.909303 -4.317389 67.934721 1.862863 -3.727184 53.099451 -0.000002 -0.000000 -0.000005 8.373380 -8.171757 73.989943 2.173673 -3.940951 57.745397 1.042006 -2.937903 39.049865 -0.000000 -0.000001 -0.000001 -15.936358 12.279630 3.506889 16.620869 6.662692 2.616292 6.979349 -7.995241 -4.629170 -0.184994 0.003037 -0.086087 0.000000 0.000002 -0.000000 8.095879 -33.565004 -10.397505 22.477883 5.502236 -1.603722 -25.142167 -10.735947 6.080272 -3.116666 0.000008 0.000001 0.000000 0.000002 0.000000 
2.119276 89.938202 1.010619 -7.254416 5.439908 5.415237 5.057645 -11.451652 -1.704962 1.295186 0.639016 -0.796809 1.290284 0.661746 -0.568122 2.384422 2.834740 1.343253 9.779327 37.254085 -6.647044 0.000000 -0.000001 -0.000000 -0.622562 -16.371024 -20.154066 10.769400 0.722265 -34.477176 0.000185 -94.691946 0.000166 -118.504110 -20.419132 15.309843 -12.800137 -17.470113 4.121645 1.000147 0.731318 -1.438312 -7.335818 -0.421730 13.147346 0.000001 -0.000000 0.000000 6.410321 8.363711 -80.414570 1.722725 4.149880 -45.074423 0.636273 2.657162 -26.928197 0.000001 0.000001 -0.000000 4.717020 8.075512 -77.582275 2.056307 4.456867 -49.517666 1.539978 3.959685 -42.490617 0.000002 -0.000001 0.000001 2.434392 7.296050 -69.364089 3.297865 5.266356 -64.088662 0.787098 2.934901 -30.019549 0.000000 -0.000000 0.000004 -3.532553 4.254334 -63.954579 3.402095 5.315517 -65.218949 1.034622 3.326114 -34.549822 -0.000003 0.000002 0.000006 0.754309 18.436750 11.542203 10.687447 23.553380 38.393245 -0.000322 97.831518 0.000412 -36.138490 -16.986612 23.484624 20.470550 7.475591 18.843594 4.151743 -12.160916 -33.847976 -6.346172 -41.944048 -36.535481 -0.000000 0.000001 0.000002 -0.887112 1.427984 12.684525 1.917429 -3.767460 53.934346 3.057983 -4.374558 69.896782 -0.000000 -0.000001 -0.000001 0.770894 -5.199590 54.618837 5.563869 -4.568231 101.238573 4.771469 -4.655770 91.407875 0.000000 0.000001 -0.000006 6.934464 -8.544291 63.908769 2.909302 -4.317391 67.934721 1.862865 -3.727185 53.099444 -0.000000 0.000002 -0.000005 8.373382 -8.171753 73.989943 2.173674 -3.940949 57.745397 1.042012 -2.937906 39.049872 0.000000 -0.000004 0.000002 -16.574349 12.331801 3.024393 16.872015 6.127206 2.714149 7.226711 -8.437112 -4.220228 -0.186117 0.003052 -0.086490 0.000000 0.000002 -0.000000 8.350538 -33.916134 -10.605948 22.662168 3.990703 -1.648684 -25.431999 -10.223466 7.124470 -3.115613 -0.000017 -0.000001 0.000000 -0.000000 -0.000000 
2.239438 89.754471 1.001494 -7.177287 6.584980 5.587897 5.098563 -11.185394 -1.850654 1.295455 0.766321 -0.826470 1.290804 0.788590 -0.601931 2.407378 2.906950 1.347167 9.951772 38.286342 -6.680227 -0.000000 0.000002 -0.000001 -0.622562 -16.371024 -20.154066 10.906093 0.820960 -34.529051 0.000217 -94.834042 0.000197 -118.516637 -20.589636 15.315113 -12.800137 -17.470120 4.121642 1.000145 0.731316 -1.438310 -7.335817 -0.421730 13.147347 -0.000002 -0.000001 -0.000001 6.410324 8.363714 -80.414570 1.722723 4.149882 -45.074430 0.636273 2.657165 -26.928205 -0.000000 -0.000001 0.000001 4.717025 8.075512 -77.582281 2.056309 4.456862 -49.517663 1.539980 3.959687 -42.490620 -0.000000 0.000002 0.000003 2.434394 7.296050 -69.364095 3.297864 5.266358 -64.088662 0.787099 2.934901 -30.019549 -0.000002 -0.000000 0.000004 -3.532551 4.254337 -63.954586 3.402098 5.315522 -65.218949 1.034622 3.326113 -34.549819 -0.000004 0.000001 0.000001 0.754309 18.436752 11.542201 10.687451 23.553383 38.393238 -0.000063 97.831518 0.000043 -36.106586 -17.047787 23.633759 20.470550 7.475591 18.843590 4.151747 -12.160918 -33.847976 -6.346171 -41.944045 -36.535481 0.000002 0.000000 -0.000001 -0.887110 1.427985 12.684527 1.917429 -3.767463 53.934346 3.057975 -4.374558 69.896775 -0.000000 -0.000003 0.000001 0.770895 -5.199589 54.618834 5.563869 -4.568235 101.238580 4.771469 -4.655772 91.407882 0.000000 0.000001 -0.000006 6.934462 -8.544287 63.908769 2.909302 -4.317394 67.934721 1.862860 -3.727184 53.099444 -0.000000 -0.000002 -0.000003 8.373382 -8.171755 73.989943 2.173674 -3.940950 57.745397 1.042011 -2.937901 39.049868 0.000001 -0.000000 0.000006 -17.223277 12.375594 2.596669 17.111659 5.877209 2.792441 7.479061 -9.191560 -3.812103 -0.186627 0.003013 -0.085580 -0.000000 0.000000 0.000000 8.627975 -34.265495 -10.800530 22.830249 2.302560 -1.707143 -25.705007 -9.602551 8.298582 -3.114327 -0.000012 0.000000 -0.000000 -0.000002 -0.000000 
2.356959 89.567551 0.996061 -7.078333 7.765614 5.749898 5.149034 -10.768942 -1.989290 1.296236 0.900445 -0.857990 1.291465 0.922216 -0.637541 2.429911 2.974997 1.349871 10.118627 39.271849 -6.701045 -0.000001 -0.000002 -0.000000 -0.622562 -16.371026 -20.154063 11.041140 0.917119 -34.580923 0.000017 -94.972476 -0.000083 -118.529723 -20.757355 15.318562 -12.800141 -17.470121 4.121646 1.000147 0.731320 -1.438312 -7.335817 -0.421730 13.147351 0.000001 -0.000004 0.000000 6.410325 8.363714 -80.414563 1.722727 4.149882 -45.074423 0.636276 2.657163 -26.928198 0.000002 0.000003 -0.000004 4.717026 8.075512 -77.582275 2.056307 4.456867 -49.517666 1.539979 3.959689 -42.490617 0.000000 0.000000 0.000003 2.434394 7.296048 -69.364095 3.297865 5.266355 -64.088662 0.787097 2.934907 -30.019549 0.000001 -0.000002 0.000008 -3.532555 4.254336 -63.954586 3.402095 5.315517 -65.218949 1.034625 3.326112 -34.549819 -0.000001 0.000000 -0.000002 0.754309 18.436750 11.542205 10.687458 23.553383 38.393234 0.000308 97.831518 -0.000250 -36.074471 -17.108722 23.780605 20.470548 7.475588 18.843589 4.151746 -12.160918 -33.847969 -6.346175 -41.944045 -36.535478 0.000002 -0.000001 0.000002 -0.887109 1.427980 12.684524 1.917428 -3.767454 53.934346 3.057972 -4.374559 69.896775 -0.000000 -0.000001 -0.000001 0.770895 -5.199590 54.618837 5.563867 -4.568232 101.238580 4.771471 -4.655771 91.407875 0.000002 0.000000 -0.000009 6.934464 -8.544292 63.908769 2.909304 -4.317390 67.934714 1.862859 -3.727184 53.099441 -0.000001 -0.000004 0.000002 8.373381 -8.171758 73.989943 2.173672 -3.940951 57.745397 1.042012 -2.937903 39.049865 -0.000000 0.000001 0.000006 -17.897899 12.417779 2.169729 17.343430 5.649420 2.867209 7.753020 -9.992554 -3.393237 -0.186694 0.003010 -0.085151 0.000000 0.000000 0.000000 8.923296 -34.607677 -10.973560 22.997817 0.461421 -1.778546 -25.990866 -8.899636 9.582975 -3.109470 -0.000012 -0.000000 0.000000 0.000002 0.000000 
